<?xml version="1.0" encoding="UTF-8" standalone="no"?>
<!DOCTYPE svg PUBLIC "-//W3C//DTD SVG 1.1//EN"
 "http://www.w3.org/Graphics/SVG/1.1/DTD/svg11.dtd">
<!-- Generated by graphviz version 15.1.1 (20260805.0921)
 -->
<!-- Title: G Pages: 1 -->
<svg width="2145pt" height="3580pt"
 viewBox="0.00 0.00 2145.00 3580.00" xmlns="http://www.w3.org/2000/svg" xmlns:xlink="http://www.w3.org/1999/xlink">
<g id="graph0" class="graph" transform="scale(2.91667 2.91667) rotate(0) translate(23.04 1204.26)">
<title>G</title>
<polygon fill="white" stroke="none" points="-23.04,23.04 -23.04,-1204.26 712.44,-1204.26 712.44,23.04 -23.04,23.04"/>
<text xml:space="preserve" text-anchor="middle" x="344.7" y="-1158.22" font-family="Apple SD Gothic Neo" font-size="20.00" fill="#253750">06 · 투자 심사·보고서 작성 | 김민솔</text>
<text xml:space="preserve" text-anchor="middle" x="344.7" y="-1134.22" font-family="Apple SD Gothic Neo" font-size="20.00" fill="#253750">설계 목표 · proposed&#45;2.0 | 점수 계산은 Python · 설명은 근거 기반</text>
<!-- input&#45;&gt;valid -->
<g id="edge1" class="edge">
<title>input&#45;&gt;valid</title>
<path fill="none" stroke="#8392a5" stroke-width="1.25" d="M266.2,-1038.52C266.2,-1029.73 266.2,-1020.57 266.2,-1012.11"/>
<polygon fill="#8392a5" stroke="#8392a5" stroke-width="1.25" points="268.65,-1012.16 266.2,-1005.16 263.75,-1012.16 268.65,-1012.16"/>
</g>
<!-- valid&#45;&gt;need -->
<g id="edge2" class="edge">
<title>valid&#45;&gt;need</title>
<path fill="none" stroke="#8392a5" stroke-width="1.25" d="M284.84,-950.7C293.81,-938.54 304.87,-923.55 315.32,-909.39"/>
<polygon fill="#8392a5" stroke="#8392a5" stroke-width="1.25" points="317.08,-911.13 319.27,-904.04 313.14,-908.22 317.08,-911.13"/>
</g>
<!-- need&#45;&gt;req -->
<g id="edge3" class="edge">
<title>need&#45;&gt;req</title>
<path fill="none" stroke="#8392a5" stroke-width="1.25" d="M308.67,-825.06C281.17,-801.84 245.43,-771.66 218.96,-749.32"/>
<polygon fill="#8392a5" stroke="#8392a5" stroke-width="1.25" points="220.82,-747.68 213.89,-745.03 217.66,-751.42 220.82,-747.68"/>
<text xml:space="preserve" text-anchor="middle" x="258.94" y="-790.99" font-family="Apple SD Gothic Neo" font-size="11.00" fill="#596a80">예</text>
</g>
<!-- need&#45;&gt;gate -->
<g id="edge5" class="edge">
<title>need&#45;&gt;gate</title>
<path fill="none" stroke="#8392a5" stroke-width="1.25" d="M383.54,-821.36C398.49,-803.98 416.26,-783.32 431.95,-765.08"/>
<polygon fill="#8392a5" stroke="#8392a5" stroke-width="1.25" points="433.69,-766.81 436.39,-759.91 429.97,-763.62 433.69,-766.81"/>
<text xml:space="preserve" text-anchor="middle" x="378.49" y="-797.02" font-family="Apple SD Gothic Neo" font-size="11.00" fill="#596a80">아니요 / 종료</text>
</g>
<!-- req&#45;&gt;valid -->
<g id="edge4" class="edge">
<title>req&#45;&gt;valid</title>
<path fill="none" stroke="#9b90b6" stroke-width="1.25" stroke-dasharray="5,2" d="M186.19,-743.6C194.56,-796.74 213.2,-915.04 213.2,-915.04 213.2,-915.04 225.69,-929.39 238.54,-944.16"/>
<polygon fill="#9b90b6" stroke="#9b90b6" stroke-width="1.25" points="236.35,-945.38 242.79,-949.05 240.04,-942.16 236.35,-945.38"/>
<text xml:space="preserve" text-anchor="middle" x="186.57" y="-852.19" font-family="Apple SD Gothic Neo" font-size="11.00" fill="#82719d">보완 후</text>
</g>
<!-- gate&#45;&gt;enough -->
<g id="edge7" class="edge">
<title>gate&#45;&gt;enough</title>
<path fill="none" stroke="#8392a5" stroke-width="1.25" d="M438.65,-675.25C425.53,-659.22 410.38,-640.69 396.67,-623.92"/>
<polygon fill="#8392a5" stroke="#8392a5" stroke-width="1.25" points="398.82,-622.68 392.49,-618.81 395.02,-625.78 398.82,-622.68"/>
<text xml:space="preserve" text-anchor="middle" x="403.03" y="-639.14" font-family="Apple SD Gothic Neo" font-size="11.00" fill="#596a80">아니요</text>
</g>
<!-- gate&#45;&gt;no -->
<g id="edge6" class="edge">
<title>gate&#45;&gt;no</title>
<path fill="none" stroke="#8392a5" stroke-width="1.25" d="M509.53,-676.76C531.97,-653.01 556.2,-627.36 556.2,-627.36 556.2,-627.36 568.39,-347.96 572.71,-249.02"/>
<polygon fill="#8392a5" stroke="#8392a5" stroke-width="1.25" points="575.15,-249.29 573.01,-242.19 570.25,-249.07 575.15,-249.29"/>
<text xml:space="preserve" text-anchor="middle" x="558.1" y="-475.94" font-family="Apple SD Gothic Neo" font-size="11.00" fill="#596a80">예</text>
</g>
<!-- enough&#45;&gt;unknown -->
<g id="edge8" class="edge">
<title>enough&#45;&gt;unknown</title>
<path fill="none" stroke="#8392a5" stroke-width="1.25" d="M308.65,-532.92C280.07,-509.17 249.2,-483.52 249.2,-483.52 249.2,-483.52 182.42,-407.35 143.15,-362.55"/>
<polygon fill="#8392a5" stroke="#8392a5" stroke-width="1.25" points="145.03,-360.99 138.57,-357.34 141.35,-364.22 145.03,-360.99"/>
<text xml:space="preserve" text-anchor="middle" x="207.03" y="-455.9" font-family="Apple SD Gothic Neo" font-size="11.00" fill="#596a80">아니요</text>
</g>
<!-- enough&#45;&gt;score -->
<g id="edge9" class="edge">
<title>enough&#45;&gt;score</title>
<path fill="none" stroke="#8392a5" stroke-width="1.25" d="M365.89,-521.95C367.79,-512.05 369.75,-501.8 371.57,-492.32"/>
<polygon fill="#8392a5" stroke="#8392a5" stroke-width="1.25" points="373.93,-493.05 372.84,-485.71 369.11,-492.12 373.93,-493.05"/>
<text xml:space="preserve" text-anchor="middle" x="363.85" y="-496.68" font-family="Apple SD Gothic Neo" font-size="11.00" fill="#596a80">예</text>
</g>
<!-- unknown&#45;&gt;all -->
<g id="edge15" class="edge">
<title>unknown&#45;&gt;all</title>
<path fill="none" stroke="#8392a5" stroke-width="1.25" d="M127.7,-303.17C147.58,-262.59 184.2,-187.84 184.2,-187.84 184.2,-187.84 218.48,-171.76 251.84,-156.12"/>
<polygon fill="#8392a5" stroke="#8392a5" stroke-width="1.25" points="252.81,-158.37 258.11,-153.18 250.73,-153.94 252.81,-158.37"/>
</g>
<!-- score&#45;&gt;pass -->
<g id="edge10" class="edge">
<title>score&#45;&gt;pass</title>
<path fill="none" stroke="#8392a5" stroke-width="1.25" d="M384.98,-419.06C386.67,-409.85 388.58,-399.47 390.47,-389.15"/>
<polygon fill="#8392a5" stroke="#8392a5" stroke-width="1.25" points="392.86,-389.7 391.71,-382.38 388.04,-388.82 392.86,-389.7"/>
</g>
<!-- pass&#45;&gt;yes -->
<g id="edge11" class="edge">
<title>pass&#45;&gt;yes</title>
<path fill="none" stroke="#8392a5" stroke-width="1.25" d="M369.79,-287.57C359.61,-274.24 348.46,-259.65 338.84,-247.06"/>
<polygon fill="#8392a5" stroke="#8392a5" stroke-width="1.25" points="341.02,-245.86 334.82,-241.79 337.12,-248.84 341.02,-245.86"/>
<text xml:space="preserve" text-anchor="middle" x="349.44" y="-256.86" font-family="Apple SD Gothic Neo" font-size="11.00" fill="#596a80">예</text>
</g>
<!-- pass&#45;&gt;no -->
<g id="edge12" class="edge">
<title>pass&#45;&gt;no</title>
<path fill="none" stroke="#8392a5" stroke-width="1.25" d="M452.17,-295.13C476.27,-279.26 504.83,-260.46 528.26,-245.04"/>
<polygon fill="#8392a5" stroke="#8392a5" stroke-width="1.25" points="529.59,-247.1 534.09,-241.2 526.9,-243 529.59,-247.1"/>
<text xml:space="preserve" text-anchor="middle" x="475.59" y="-259.64" font-family="Apple SD Gothic Neo" font-size="11.00" fill="#596a80">아니요</text>
</g>
<!-- yes&#45;&gt;all -->
<g id="edge13" class="edge">
<title>yes&#45;&gt;all</title>
<path fill="none" stroke="#8392a5" stroke-width="1.25" d="M314.2,-187.49C314.2,-179.17 314.2,-169.79 314.2,-160.93"/>
<polygon fill="#8392a5" stroke="#8392a5" stroke-width="1.25" points="316.65,-161.2 314.2,-154.2 311.75,-161.2 316.65,-161.2"/>
</g>
<!-- no&#45;&gt;all -->
<g id="edge14" class="edge">
<title>no&#45;&gt;all</title>
<path fill="none" stroke="#8392a5" stroke-width="1.25" d="M497.25,-187.37C466.59,-177.24 431.19,-165.54 399.74,-155.15"/>
<polygon fill="#8392a5" stroke="#8392a5" stroke-width="1.25" points="400.62,-152.86 393.2,-152.99 399.08,-157.51 400.62,-152.86"/>
</g>
<!-- all&#45;&gt;report -->
<g id="edge16" class="edge">
<title>all&#45;&gt;report</title>
<path fill="none" stroke="#8392a5" stroke-width="1.25" d="M314.2,-99.76C314.2,-91.55 314.2,-82.21 314.2,-73.17"/>
<polygon fill="#8392a5" stroke="#8392a5" stroke-width="1.25" points="316.65,-73.18 314.2,-66.18 311.75,-73.18 316.65,-73.18"/>
</g>
<!-- input -->
<g id="node1" class="node">
<title>input</title>
<polygon fill="#f4f6f9" stroke="#a3afbf" stroke-width="1.15" points="456.89,-1125.22 153.54,-1125.22 75.51,-1038.88 378.86,-1038.88 456.89,-1125.22"/>
<text xml:space="preserve" text-anchor="start" x="190.07" y="-1078.38" font-family="Apple SD Gothic Neo" font-weight="bold" font-size="14.00" fill="#253750">네 분석 결과·근거·실행 상태</text>
</g>
<!-- valid -->
<g id="node2" class="node">
<title>valid</title>
<path fill="#f0f5fc" stroke="#93accc" stroke-width="1.15" d="M369.4,-1002.88C369.4,-1002.88 163,-1002.88 163,-1002.88 157,-1002.88 151,-996.88 151,-990.88 151,-990.88 151,-963.04 151,-963.04 151,-957.04 157,-951.04 163,-951.04 163,-951.04 369.4,-951.04 369.4,-951.04 375.4,-951.04 381.4,-957.04 381.4,-963.04 381.4,-963.04 381.4,-990.88 381.4,-990.88 381.4,-996.88 375.4,-1002.88 369.4,-1002.88"/>
<text xml:space="preserve" text-anchor="start" x="177.7" y="-973.29" font-family="Apple SD Gothic Neo" font-weight="bold" font-size="14.00" fill="#253750">대상·기간·스키마·근거 충돌 검증</text>
</g>
<!-- need -->
<g id="node3" class="node">
<title>need</title>
<polygon fill="#fff5dd" stroke="#cfb777" stroke-width="1.15" points="350.2,-915.04 227.77,-861.12 350.2,-807.2 472.63,-861.12 350.2,-915.04"/>
<text xml:space="preserve" text-anchor="start" x="312.32" y="-862.82" font-family="Apple SD Gothic Neo" font-weight="bold" font-size="14.00" fill="#253750">보완 필요하며</text>
<text xml:space="preserve" text-anchor="start" x="304.82" y="-848.82" font-family="Apple SD Gothic Neo" font-weight="bold" font-size="14.00" fill="#253750">1회 한도 내인가?</text>
</g>
<!-- req -->
<g id="node4" class="node">
<title>req</title>
<path fill="#f0f5fc" stroke="#93accc" stroke-width="1.15" d="M285.4,-743.24C285.4,-743.24 79,-743.24 79,-743.24 73,-743.24 67,-737.24 67,-731.24 67,-731.24 67,-703.32 67,-703.32 67,-697.32 73,-691.32 79,-691.32 79,-691.32 285.4,-691.32 285.4,-691.32 291.4,-691.32 297.4,-697.32 297.4,-703.32 297.4,-703.32 297.4,-731.24 297.4,-731.24 297.4,-737.24 291.4,-743.24 285.4,-743.24"/>
<text xml:space="preserve" text-anchor="start" x="87.32" y="-717.98" font-family="Apple SD Gothic Neo" font-weight="bold" font-size="14.00" fill="#253750">해당 Agent에 질문·근거·예산 전달</text>
<text xml:space="preserve" text-anchor="start" x="147.7" y="-705.88" font-family="Apple SD Gothic Neo" font-size="12.00" fill="#627187">보완 결과 취합</text>
</g>
<!-- gate -->
<g id="node5" class="node">
<title>gate</title>
<polygon fill="#fff5dd" stroke="#cfb777" stroke-width="1.15" points="472.2,-771.2 327.27,-717.28 472.2,-663.36 617.13,-717.28 472.2,-771.2"/>
<text xml:space="preserve" text-anchor="start" x="445.57" y="-718.98" font-family="Apple SD Gothic Neo" font-weight="bold" font-size="14.00" fill="#253750">G01·G02</text>
<text xml:space="preserve" text-anchor="start" x="415.57" y="-704.98" font-family="Apple SD Gothic Neo" font-weight="bold" font-size="14.00" fill="#253750">현재 중대 차단 확인?</text>
</g>
<!-- enough -->
<g id="node6" class="node">
<title>enough</title>
<polygon fill="#fff5dd" stroke="#cfb777" stroke-width="1.15" points="356.2,-627.36 170.77,-573.44 356.2,-519.52 541.63,-573.44 356.2,-627.36"/>
<text xml:space="preserve" text-anchor="start" x="285.32" y="-575.14" font-family="Apple SD Gothic Neo" font-weight="bold" font-size="14.00" fill="#253750">필수 근거·점수 계산 가능?</text>
<text xml:space="preserve" text-anchor="start" x="279.32" y="-561.14" font-family="Apple SD Gothic Neo" font-weight="bold" font-size="14.00" fill="#253750">차단 의심·중요 충돌도 해소?</text>
</g>
<!-- unknown -->
<g id="node7" class="node">
<title>unknown</title>
<path fill="#fbedea" stroke="#cfa59b" stroke-width="1.15" d="M218.4,-355.64C218.4,-355.64 12,-355.64 12,-355.64 6,-355.64 0,-349.64 0,-343.64 0,-343.64 0,-315.72 0,-315.72 0,-309.72 6,-303.72 12,-303.72 12,-303.72 218.4,-303.72 218.4,-303.72 224.4,-303.72 230.4,-309.72 230.4,-315.72 230.4,-315.72 230.4,-343.64 230.4,-343.64 230.4,-349.64 224.4,-355.64 218.4,-355.64"/>
<text xml:space="preserve" text-anchor="start" x="91.2" y="-330.38" font-family="Apple SD Gothic Neo" font-weight="bold" font-size="14.00" fill="#253750">판단불가</text>
<text xml:space="preserve" text-anchor="start" x="42.07" y="-318.28" font-family="Apple SD Gothic Neo" font-size="12.00" fill="#627187">총점 null · 결측·실패 사유 기록</text>
</g>
<!-- score -->
<g id="node8" class="node">
<title>score</title>
<path fill="#f0f5fc" stroke="#93accc" stroke-width="1.15" d="M482.4,-483.52C482.4,-483.52 276,-483.52 276,-483.52 270,-483.52 264,-477.52 264,-471.52 264,-471.52 264,-431.6 264,-431.6 264,-425.6 270,-419.6 276,-419.6 276,-419.6 482.4,-419.6 482.4,-419.6 488.4,-419.6 494.4,-425.6 494.4,-431.6 494.4,-431.6 494.4,-471.52 494.4,-471.52 494.4,-477.52 488.4,-483.52 482.4,-483.52"/>
<text xml:space="preserve" text-anchor="start" x="318.07" y="-458.26" font-family="Apple SD Gothic Neo" font-weight="bold" font-size="14.00" fill="#253750">C1~C6 가중 총점 계산</text>
<text xml:space="preserve" text-anchor="start" x="319.57" y="-446.16" font-family="Apple SD Gothic Neo" font-size="12.00" fill="#627187">proposed&#45;2.0 정책 적용</text>
<text xml:space="preserve" text-anchor="start" x="308.32" y="-434.16" font-family="Apple SD Gothic Neo" font-size="12.00" fill="#627187">중복 합산·임의 결측 보정 금지</text>
</g>
<!-- pass -->
<g id="node9" class="node">
<title>pass</title>
<polygon fill="#fff5dd" stroke="#cfb777" stroke-width="1.15" points="401.2,-383.6 260.77,-329.68 401.2,-275.76 541.63,-329.68 401.2,-383.6"/>
<text xml:space="preserve" text-anchor="start" x="360.7" y="-331.38" font-family="Apple SD Gothic Neo" font-weight="bold" font-size="14.00" fill="#253750">총점 ≥ 60이며</text>
<text xml:space="preserve" text-anchor="start" x="346.82" y="-317.38" font-family="Apple SD Gothic Neo" font-weight="bold" font-size="14.00" fill="#253750">모든 적용 항목 ≥ 2?</text>
</g>
<!-- yes -->
<g id="node10" class="node">
<title>yes</title>
<path fill="#e7f3ed" stroke="#8cb7a0" stroke-width="1.15" d="M417.4,-239.72C417.4,-239.72 211,-239.72 211,-239.72 205,-239.72 199,-233.72 199,-227.72 199,-227.72 199,-199.88 199,-199.88 199,-193.88 205,-187.88 211,-187.88 211,-187.88 417.4,-187.88 417.4,-187.88 423.4,-187.88 429.4,-193.88 429.4,-199.88 429.4,-199.88 429.4,-227.72 429.4,-227.72 429.4,-233.72 423.4,-239.72 417.4,-239.72"/>
<text xml:space="preserve" text-anchor="start" x="302.2" y="-210.12" font-family="Apple SD Gothic Neo" font-weight="bold" font-size="14.00" fill="#253750">적격</text>
</g>
<!-- no -->
<g id="node11" class="node">
<title>no</title>
<path fill="#fbedea" stroke="#cfa59b" stroke-width="1.15" d="M677.4,-239.76C677.4,-239.76 471,-239.76 471,-239.76 465,-239.76 459,-233.76 459,-227.76 459,-227.76 459,-199.84 459,-199.84 459,-193.84 465,-187.84 471,-187.84 471,-187.84 677.4,-187.84 677.4,-187.84 683.4,-187.84 689.4,-193.84 689.4,-199.84 689.4,-199.84 689.4,-227.76 689.4,-227.76 689.4,-233.76 683.4,-239.76 677.4,-239.76"/>
<text xml:space="preserve" text-anchor="start" x="556.2" y="-214.5" font-family="Apple SD Gothic Neo" font-weight="bold" font-size="14.00" fill="#253750">부적격</text>
<text xml:space="preserve" text-anchor="start" x="515.7" y="-202.4" font-family="Apple SD Gothic Neo" font-size="12.00" fill="#627187">차단 또는 점수 미달 사유</text>
</g>
<!-- all -->
<g id="node12" class="node">
<title>all</title>
<path fill="#f0f5fc" stroke="#93accc" stroke-width="1.15" d="M417.4,-151.84C417.4,-151.84 211,-151.84 211,-151.84 205,-151.84 199,-145.84 199,-139.84 199,-139.84 199,-111.92 199,-111.92 199,-105.92 205,-99.92 211,-99.92 211,-99.92 417.4,-99.92 417.4,-99.92 423.4,-99.92 429.4,-105.92 429.4,-111.92 429.4,-111.92 429.4,-139.84 429.4,-139.84 429.4,-145.84 423.4,-151.84 417.4,-151.84"/>
<text xml:space="preserve" text-anchor="start" x="260.57" y="-126.58" font-family="Apple SD Gothic Neo" font-weight="bold" font-size="14.00" fill="#253750">전체 기업 결과 취합</text>
<text xml:space="preserve" text-anchor="start" x="250.82" y="-114.48" font-family="Apple SD Gothic Neo" font-size="12.00" fill="#627187">적격 기업 중 최대 K개 선정</text>
</g>
<!-- report -->
<g id="node13" class="node">
<title>report</title>
<path fill="#e7f3ed" stroke="#8cb7a0" stroke-width="1.15" d="M417.4,-63.92C417.4,-63.92 211,-63.92 211,-63.92 205,-63.92 199,-57.92 199,-51.92 199,-51.92 199,-12 199,-12 199,-6 205,0 211,0 211,0 417.4,0 417.4,0 423.4,0 429.4,-6 429.4,-12 429.4,-12 429.4,-51.92 429.4,-51.92 429.4,-57.92 423.4,-63.92 417.4,-63.92"/>
<text xml:space="preserve" text-anchor="start" x="282.32" y="-38.66" font-family="Apple SD Gothic Neo" font-weight="bold" font-size="14.00" fill="#253750">보고서 생성</text>
<text xml:space="preserve" text-anchor="start" x="246.32" y="-26.56" font-family="Apple SD Gothic Neo" font-size="12.00" fill="#627187">선정·미선정 이유 · 점수·근거</text>
<text xml:space="preserve" text-anchor="start" x="249.7" y="-14.56" font-family="Apple SD Gothic Neo" font-size="12.00" fill="#627187">미확인·보완 이력·실사 질문</text>
</g>
</g>
</svg>
