<?xml version="1.0" encoding="UTF-8" standalone="no"?>
<!DOCTYPE svg PUBLIC "-//W3C//DTD SVG 1.1//EN"
 "http://www.w3.org/Graphics/SVG/1.1/DTD/svg11.dtd">
<!-- Generated by graphviz version 15.1.1 (20260805.0921)
 -->
<!-- Title: G Pages: 1 -->
<svg width="1654pt" height="3195pt"
 viewBox="0.00 0.00 1654.00 3195.00" xmlns="http://www.w3.org/2000/svg" xmlns:xlink="http://www.w3.org/1999/xlink">
<g id="graph0" class="graph" transform="scale(2.91667 2.91667) rotate(0) translate(23.04 1072.34)">
<title>G</title>
<polygon fill="white" stroke="none" points="-23.04,23.04 -23.04,-1072.34 544.16,-1072.34 544.16,23.04 -23.04,23.04"/>
<text xml:space="preserve" text-anchor="middle" x="260.56" y="-1026.3" font-family="Apple SD Gothic Neo" font-size="20.00" fill="#253750">04 · 실적·성장성 분석 | 변현준</text>
<text xml:space="preserve" text-anchor="middle" x="260.56" y="-1002.3" font-family="Apple SD Gothic Neo" font-size="20.00" fill="#253750">직접 자료 수집 | 관측값 구조화 · 코드 계산</text>
<!-- input&#45;&gt;search -->
<g id="edge1" class="edge">
<title>input&#45;&gt;search</title>
<path fill="none" stroke="#8392a5" stroke-width="1.25" d="M275.92,-906.6C275.92,-897.81 275.92,-888.65 275.92,-880.19"/>
<polygon fill="#8392a5" stroke="#8392a5" stroke-width="1.25" points="278.37,-880.24 275.92,-873.24 273.47,-880.24 278.37,-880.24"/>
</g>
<!-- search&#45;&gt;extract -->
<g id="edge2" class="edge">
<title>search&#45;&gt;extract</title>
<path fill="none" stroke="#8392a5" stroke-width="1.25" d="M275.92,-818.74C275.92,-810.43 275.92,-801.05 275.92,-792.19"/>
<polygon fill="#8392a5" stroke="#8392a5" stroke-width="1.25" points="278.37,-792.47 275.92,-785.47 273.47,-792.47 278.37,-792.47"/>
</g>
<!-- extract&#45;&gt;verify -->
<g id="edge3" class="edge">
<title>extract&#45;&gt;verify</title>
<path fill="none" stroke="#8392a5" stroke-width="1.25" d="M275.92,-730.85C275.92,-722.53 275.92,-713.15 275.92,-704.29"/>
<polygon fill="#8392a5" stroke="#8392a5" stroke-width="1.25" points="278.37,-704.56 275.92,-697.56 273.47,-704.56 278.37,-704.56"/>
</g>
<!-- verify&#45;&gt;stage -->
<g id="edge4" class="edge">
<title>verify&#45;&gt;stage</title>
<path fill="none" stroke="#8392a5" stroke-width="1.25" d="M240.05,-642.88C226.88,-633.56 211.69,-622.82 197.41,-612.73"/>
<polygon fill="#8392a5" stroke="#8392a5" stroke-width="1.25" points="199.16,-610.96 192.03,-608.92 196.33,-614.97 199.16,-610.96"/>
</g>
<!-- verify&#45;&gt;growth -->
<g id="edge5" class="edge">
<title>verify&#45;&gt;growth</title>
<path fill="none" stroke="#8392a5" stroke-width="1.25" d="M311.79,-642.88C324.96,-633.56 340.15,-622.82 354.43,-612.73"/>
<polygon fill="#8392a5" stroke="#8392a5" stroke-width="1.25" points="355.51,-614.97 359.81,-608.92 352.68,-610.96 355.51,-614.97"/>
</g>
<!-- stage&#45;&gt;validate -->
<g id="edge6" class="edge">
<title>stage&#45;&gt;validate</title>
<path fill="none" stroke="#8392a5" stroke-width="1.25" d="M190.29,-542.94C204.07,-533.2 219.23,-522.48 232.92,-512.8"/>
<polygon fill="#8392a5" stroke="#8392a5" stroke-width="1.25" points="234.08,-514.98 238.38,-508.94 231.25,-510.98 234.08,-514.98"/>
</g>
<!-- growth&#45;&gt;validate -->
<g id="edge7" class="edge">
<title>growth&#45;&gt;validate</title>
<path fill="none" stroke="#8392a5" stroke-width="1.25" d="M361.54,-542.94C347.76,-533.2 332.6,-522.48 318.92,-512.8"/>
<polygon fill="#8392a5" stroke="#8392a5" stroke-width="1.25" points="320.59,-510.98 313.46,-508.94 317.76,-514.98 320.59,-510.98"/>
</g>
<!-- validate&#45;&gt;out -->
<g id="edge8" class="edge">
<title>validate&#45;&gt;out</title>
<path fill="none" stroke="#8392a5" stroke-width="1.25" d="M251.64,-455.01C243.37,-446.36 233.75,-436.31 224.06,-426.18"/>
<polygon fill="#8392a5" stroke="#8392a5" stroke-width="1.25" points="225.95,-424.61 219.34,-421.24 222.41,-427.99 225.95,-424.61"/>
</g>
<!-- out&#45;&gt;send -->
<g id="edge9" class="edge">
<title>out&#45;&gt;send</title>
<path fill="none" stroke="#8392a5" stroke-width="1.25" d="M172.13,-315.18C172.69,-306.24 173.26,-297.15 173.78,-288.81"/>
<polygon fill="#8392a5" stroke="#8392a5" stroke-width="1.25" points="176.22,-289.14 174.21,-282 171.33,-288.84 176.22,-289.14"/>
</g>
<!-- send&#45;&gt;req -->
<g id="edge10" class="edge">
<title>send&#45;&gt;req</title>
<path fill="none" stroke="#9b90b6" stroke-width="1.25" stroke-dasharray="5,2" d="M178.64,-227.3C179.5,-219.31 180.49,-210.11 181.49,-200.77"/>
<polygon fill="#9b90b6" stroke="#9b90b6" stroke-width="1.25" points="183.9,-201.28 182.21,-194.06 179.03,-200.75 183.9,-201.28"/>
<text xml:space="preserve" text-anchor="middle" x="147.81" y="-217.84" font-family="Apple SD Gothic Neo" font-size="11.00" fill="#82719d">요청이 있을 때</text>
</g>
<!-- req&#45;&gt;patch -->
<g id="edge11" class="edge">
<title>req&#45;&gt;patch</title>
<path fill="none" stroke="#9b90b6" stroke-width="1.25" stroke-dasharray="5,2" d="M231.53,-87.48C239.77,-77.78 248.16,-67.89 255.72,-58.99"/>
<polygon fill="#9b90b6" stroke="#9b90b6" stroke-width="1.25" points="257.43,-60.77 260.09,-53.85 253.69,-57.6 257.43,-60.77"/>
</g>
<!-- patch&#45;&gt;validate -->
<g id="edge12" class="edge">
<title>patch&#45;&gt;validate</title>
<path fill="none" stroke="#9b90b6" stroke-width="1.25" stroke-dasharray="5,2" d="M309.69,-52.46C327.23,-69.16 346.92,-87.92 346.92,-87.92 346.92,-87.92 352.92,-315.6 352.92,-315.6 352.92,-315.6 352.92,-419.44 352.92,-419.44 352.92,-419.44 333.96,-434.45 314.86,-449.57"/>
<polygon fill="#9b90b6" stroke="#9b90b6" stroke-width="1.25" points="313.58,-447.46 309.61,-453.73 316.62,-451.3 313.58,-447.46"/>
<text xml:space="preserve" text-anchor="middle" x="406" y="-256.03" font-family="Apple SD Gothic Neo" font-size="11.00" fill="#82719d">재검증 후 전체 결과 반환</text>
</g>
<!-- input -->
<g id="node1" class="node">
<title>input</title>
<polygon fill="#f4f6f9" stroke="#a3afbf" stroke-width="1.15" points="479.05,-993.3 155.91,-993.3 72.79,-906.96 395.92,-906.96 479.05,-993.3"/>
<text xml:space="preserve" text-anchor="start" x="193.79" y="-946.45" font-family="Apple SD Gothic Neo" font-weight="bold" font-size="14.00" fill="#253750">기업·대표 제품·투자 단계 입력</text>
</g>
<!-- search -->
<g id="node2" class="node">
<title>search</title>
<path fill="#f0f5fc" stroke="#93accc" stroke-width="1.15" d="M379.12,-870.96C379.12,-870.96 172.72,-870.96 172.72,-870.96 166.72,-870.96 160.72,-864.96 160.72,-858.96 160.72,-858.96 160.72,-831.12 160.72,-831.12 160.72,-825.12 166.72,-819.12 172.72,-819.12 172.72,-819.12 379.12,-819.12 379.12,-819.12 385.12,-819.12 391.12,-825.12 391.12,-831.12 391.12,-831.12 391.12,-858.96 391.12,-858.96 391.12,-864.96 385.12,-870.96 379.12,-870.96"/>
<text xml:space="preserve" text-anchor="start" x="179.54" y="-841.36" font-family="Apple SD Gothic Neo" font-weight="bold" font-size="14.00" fill="#253750">공시·거래 상대·실증·고용 자료 수집</text>
</g>
<!-- extract -->
<g id="node3" class="node">
<title>extract</title>
<path fill="#f0f5fc" stroke="#93accc" stroke-width="1.15" d="M379.12,-783.12C379.12,-783.12 172.72,-783.12 172.72,-783.12 166.72,-783.12 160.72,-777.12 160.72,-771.12 160.72,-771.12 160.72,-743.2 160.72,-743.2 160.72,-737.2 166.72,-731.2 172.72,-731.2 172.72,-731.2 379.12,-731.2 379.12,-731.2 385.12,-731.2 391.12,-737.2 391.12,-743.2 391.12,-743.2 391.12,-771.12 391.12,-771.12 391.12,-777.12 385.12,-783.12 379.12,-783.12"/>
<text xml:space="preserve" text-anchor="start" x="187.42" y="-757.86" font-family="Apple SD Gothic Neo" font-weight="bold" font-size="14.00" fill="#253750">매출·계약·고객·고용 관측값 추출</text>
<text xml:space="preserve" text-anchor="start" x="216.67" y="-745.76" font-family="Apple SD Gothic Neo" font-size="12.00" fill="#627187">기간·단위·제품 귀속 기록</text>
</g>
<!-- verify -->
<g id="node4" class="node">
<title>verify</title>
<path fill="#f0f5fc" stroke="#93accc" stroke-width="1.15" d="M379.12,-695.2C379.12,-695.2 172.72,-695.2 172.72,-695.2 166.72,-695.2 160.72,-689.2 160.72,-683.2 160.72,-683.2 160.72,-655.28 160.72,-655.28 160.72,-649.28 166.72,-643.28 172.72,-643.28 172.72,-643.28 379.12,-643.28 379.12,-643.28 385.12,-643.28 391.12,-649.28 391.12,-655.28 391.12,-655.28 391.12,-683.2 391.12,-683.2 391.12,-689.2 385.12,-695.2 379.12,-695.2"/>
<text xml:space="preserve" text-anchor="start" x="193.79" y="-669.94" font-family="Apple SD Gothic Neo" font-weight="bold" font-size="14.00" fill="#253750">독립 근거·중복·철회 여부 확인</text>
<text xml:space="preserve" text-anchor="start" x="184.04" y="-657.84" font-family="Apple SD Gothic Neo" font-size="12.00" fill="#627187">허가·투자 유치를 매출로 인정하지 않음</text>
</g>
<!-- stage -->
<g id="node5" class="node">
<title>stage</title>
<path fill="#f0f5fc" stroke="#93accc" stroke-width="1.15" d="M249.12,-607.28C249.12,-607.28 42.72,-607.28 42.72,-607.28 36.72,-607.28 30.72,-601.28 30.72,-595.28 30.72,-595.28 30.72,-555.36 30.72,-555.36 30.72,-549.36 36.72,-543.36 42.72,-543.36 42.72,-543.36 249.12,-543.36 249.12,-543.36 255.12,-543.36 261.12,-549.36 261.12,-555.36 261.12,-555.36 261.12,-595.28 261.12,-595.28 261.12,-601.28 255.12,-607.28 249.12,-607.28"/>
<text xml:space="preserve" text-anchor="start" x="108.42" y="-582.02" font-family="Apple SD Gothic Neo" font-weight="bold" font-size="14.00" fill="#253750">상업화 단계 S</text>
<text xml:space="preserve" text-anchor="start" x="97.92" y="-569.92" font-family="Apple SD Gothic Neo" font-size="12.00" fill="#627187">A 매출 / B 유료 계약</text>
<text xml:space="preserve" text-anchor="start" x="95.29" y="-557.92" font-family="Apple SD Gothic Neo" font-size="12.00" fill="#627187">C 실증 / D MOU·수상</text>
</g>
<!-- growth -->
<g id="node6" class="node">
<title>growth</title>
<path fill="#f0f5fc" stroke="#93accc" stroke-width="1.15" d="M509.12,-607.28C509.12,-607.28 302.72,-607.28 302.72,-607.28 296.72,-607.28 290.72,-601.28 290.72,-595.28 290.72,-595.28 290.72,-555.36 290.72,-555.36 290.72,-549.36 296.72,-543.36 302.72,-543.36 302.72,-543.36 509.12,-543.36 509.12,-543.36 515.12,-543.36 521.12,-549.36 521.12,-555.36 521.12,-555.36 521.12,-595.28 521.12,-595.28 521.12,-601.28 515.12,-607.28 509.12,-607.28"/>
<text xml:space="preserve" text-anchor="start" x="374.04" y="-582.02" font-family="Apple SD Gothic Neo" font-weight="bold" font-size="14.00" fill="#253750">성장 추이 T</text>
<text xml:space="preserve" text-anchor="start" x="329.79" y="-569.92" font-family="Apple SD Gothic Neo" font-size="12.00" fill="#627187">비교 가능한 3개 결산연도 CAGR</text>
<text xml:space="preserve" text-anchor="start" x="356.42" y="-557.92" font-family="Apple SD Gothic Neo" font-size="12.00" fill="#627187">비교 불가=unknown</text>
</g>
<!-- validate -->
<g id="node7" class="node">
<title>validate</title>
<path fill="#f0f5fc" stroke="#93accc" stroke-width="1.15" d="M379.12,-507.36C379.12,-507.36 172.72,-507.36 172.72,-507.36 166.72,-507.36 160.72,-501.36 160.72,-495.36 160.72,-495.36 160.72,-467.44 160.72,-467.44 160.72,-461.44 166.72,-455.44 172.72,-455.44 172.72,-455.44 379.12,-455.44 379.12,-455.44 385.12,-455.44 391.12,-461.44 391.12,-467.44 391.12,-467.44 391.12,-495.36 391.12,-495.36 391.12,-501.36 385.12,-507.36 379.12,-507.36"/>
<text xml:space="preserve" text-anchor="start" x="210.29" y="-482.1" font-family="Apple SD Gothic Neo" font-weight="bold" font-size="14.00" fill="#253750">C5·RF1~RF4 코드 계산</text>
<text xml:space="preserve" text-anchor="start" x="212.17" y="-470" font-family="Apple SD Gothic Neo" font-size="12.00" fill="#627187">성장 미확인 대체 규칙 명시</text>
</g>
<!-- out -->
<g id="node8" class="node">
<title>out</title>
<polygon fill="#f4f6f9" stroke="#a3afbf" stroke-width="1.15" points="337.84,-419.44 69.13,-419.44 0,-315.6 268.71,-315.6 337.84,-419.44"/>
<text xml:space="preserve" text-anchor="start" x="103.29" y="-368.22" font-family="Apple SD Gothic Neo" font-weight="bold" font-size="14.00" fill="#253750">traction_analysis 반환</text>
<text xml:space="preserve" text-anchor="start" x="116.04" y="-356.12" font-family="Apple SD Gothic Neo" font-size="12.00" fill="#627187">관측값·근거·점수·한계</text>
</g>
<!-- send -->
<g id="node9" class="node">
<title>send</title>
<path fill="#e7f3ed" stroke="#8cb7a0" stroke-width="1.15" d="M279.12,-279.6C279.12,-279.6 72.72,-279.6 72.72,-279.6 66.72,-279.6 60.72,-273.6 60.72,-267.6 60.72,-267.6 60.72,-239.76 60.72,-239.76 60.72,-233.76 66.72,-227.76 72.72,-227.76 72.72,-227.76 279.12,-227.76 279.12,-227.76 285.12,-227.76 291.12,-233.76 291.12,-239.76 291.12,-239.76 291.12,-267.6 291.12,-267.6 291.12,-273.6 285.12,-279.6 279.12,-279.6"/>
<text xml:space="preserve" text-anchor="start" x="99.79" y="-250" font-family="Apple SD Gothic Neo" font-weight="bold" font-size="14.00" fill="#253750">결과를 06 투자 심사에 전달</text>
</g>
<!-- req -->
<g id="node10" class="node">
<title>req</title>
<polygon fill="#f4f6f9" stroke="#a3afbf" stroke-width="1.15" points="331.95,-191.76 102.83,-191.76 43.88,-87.92 273.01,-87.92 331.95,-191.76"/>
<text xml:space="preserve" text-anchor="start" x="134.29" y="-140.54" font-family="Apple SD Gothic Neo" font-weight="bold" font-size="14.00" fill="#253750">심사 보완 요청 수신</text>
<text xml:space="preserve" text-anchor="start" x="140.67" y="-128.44" font-family="Apple SD Gothic Neo" font-size="12.00" fill="#627187">기업당 최대 1라운드</text>
</g>
<!-- patch -->
<g id="node11" class="node">
<title>patch</title>
<path fill="#f0f5fc" stroke="#93accc" stroke-width="1.15" d="M386.12,-51.92C386.12,-51.92 179.72,-51.92 179.72,-51.92 173.72,-51.92 167.72,-45.92 167.72,-39.92 167.72,-39.92 167.72,-12 167.72,-12 167.72,-6 173.72,0 179.72,0 179.72,0 386.12,0 386.12,0 392.12,0 398.12,-6 398.12,-12 398.12,-12 398.12,-39.92 398.12,-39.92 398.12,-45.92 392.12,-51.92 386.12,-51.92"/>
<text xml:space="preserve" text-anchor="start" x="209.04" y="-26.66" font-family="Apple SD Gothic Neo" font-weight="bold" font-size="14.00" fill="#253750">지정 항목만 추가 수집·수정</text>
<text xml:space="preserve" text-anchor="start" x="210.54" y="-14.56" font-family="Apple SD Gothic Neo" font-size="12.00" fill="#627187">기존 근거 ID·요청 외 결과 유지</text>
</g>
</g>
</svg>
